# xmcd CD database file
#
# Track frame offsets:
#	150
#	41779
#	81143
#	99935
#	130647
#
# Disc length: 2577 seconds
#
# Revision: 0
# Processed by: cddbd v1.4PL0 Copyright (c) Steve Scherf et al.
# Submitted via: CDex 1.51
#
DISCID=330a0f05
DTITLE=Medwyn Goodall - Spring
DYEAR=2001
DGENRE=New Age
TTITLE0=Medwyn Goodall - Spring - 01 - Fresh Is The Morning
TTITLE1=Medwyn Goodall - Spring - 02 - Blue Skies
TTITLE2=Medwyn Goodall - Spring - 03 - The Mist On The Hills
TTITLE3=Medwyn Goodall - Spring - 04 - The Wild Meadow
TTITLE4=Medwyn Goodall - Spring - 05 - Evening Stillness
EXTD=YEAR: 2001
EXTT0=
EXTT1=
EXTT2=
EXTT3=
EXTT4=
PLAYORDER=
